# xmcd
#
# Track frame offsets: 
#        183
#        18680
#        38095
#        52283
#        65963
#        85205
#        102645
#        121695
#        149070
#        176203
#        179888
#        198690
#        220610
#        246708
#        275575
#        287195
#        296883
#        320133
#
# Disc length: 4413 seconds
#
# Revision: 0
# Processed by: cddbd v1.5.2PL0 Copyright (c) Steve Scherf et al.
# Submitted via: ExactAudioCopy v1.0b1
#
DISCID=47113b12
DTITLE=이승환 - The Show
DYEAR=1993
DGENRE=Ballad
TTITLE0=사랑의 세상으로
TTITLE1=세상에 뿌려진 사랑만큼
TTITLE2=비추어 주오
TTITLE3=가을 흔적
TTITLE4=나는 나일 뿐
TTITLE5=사랑하는 걸
TTITLE6=프란다스의 개
TTITLE7=기다린 날도 지워질 날도
TTITLE8=텅빈 마음
TTITLE9=이오 LIVE
TTITLE10=꿈꾸는 소년
TTITLE11=한사람을 위한 마음
TTITLE12=하숙생
TTITLE13=좋은 날
TTITLE14=그냥 그런 이야기
TTITLE15=잃어버린 건... 나
TTITLE16=친구에게
TTITLE17=Ending
EXTD=
EXTT0=
EXTT1=
EXTT2=
EXTT3=
EXTT4=
EXTT5=
EXTT6=
EXTT7=
EXTT8=
EXTT9=
EXTT10=
EXTT11=
EXTT12=
EXTT13=
EXTT14=
EXTT15=
EXTT16=
EXTT17=
PLAYORDER=
